<svg width="23" height="20" viewBox="0 0 23 20" fill="none" xmlns="http://www.w3.org/2000/svg">
<path d="M16.7282 1.79932C19.3407 1.79932 21.4949 4.18265 21.4949 7.07015C21.4949 10.1868 18.7907 12.1118 16.224 14.4035C13.6574 16.6951 12.3282 17.9327 11.8699 18.2077C11.3657 17.8868 9.71571 16.3743 7.51571 14.4035C4.90321 12.1118 2.24487 10.1868 2.24487 7.07015C2.24487 4.18265 4.39904 1.79932 7.01154 1.79932C8.93654 1.79932 9.99071 2.71598 10.724 3.77015C11.5949 4.96182 11.7324 5.55765 11.8699 5.55765C12.0074 5.55765 12.1449 4.96182 13.0157 3.77015C13.749 2.71598 14.8032 1.79932 16.7282 1.79932ZM16.7282 0.424316C14.6657 0.424316 13.1074 1.24932 11.8699 2.99098C10.6324 1.29515 9.07404 0.47015 7.01154 0.47015C3.61987 0.424316 0.869873 3.40348 0.869873 7.07015C0.869873 10.416 3.34487 12.5701 5.72821 14.6326C6.00321 14.8618 6.32404 15.1368 6.59904 15.4118L7.65321 16.3285C9.66987 18.116 10.6782 19.0326 11.1365 19.3076C11.3657 19.4452 11.6407 19.5368 11.8699 19.5368C12.1449 19.5368 12.374 19.4452 12.6032 19.3076C13.0615 19.0326 13.8865 18.2993 16.1782 16.191L17.0949 15.366C17.4157 15.091 17.6907 14.816 18.0115 14.5868C20.4407 12.5701 22.8699 10.4618 22.8699 7.07015C22.8699 3.40348 20.1199 0.424316 16.7282 0.424316Z" fill="white"/>
</svg>
