<svg width="23" height="20" viewBox="0 0 23 20" fill="none" xmlns="http://www.w3.org/2000/svg">
<path d="M15.9492 1.79932C18.5617 1.79932 20.7158 4.18265 20.7158 7.07015C20.7158 10.1868 18.0117 12.1118 15.445 14.4035C12.8783 16.6951 11.5492 17.9327 11.0908 18.2077C10.5867 17.8868 8.93665 16.3743 6.73665 14.4035C4.12415 12.1118 1.46582 10.1868 1.46582 7.07015C1.46582 4.18265 3.61999 1.79932 6.23249 1.79932C8.15749 1.79932 9.21165 2.71598 9.94499 3.77015C10.8158 4.96182 10.9533 5.55765 11.0908 5.55765C11.2283 5.55765 11.3658 4.96182 12.2367 3.77015C12.97 2.71598 14.0242 1.79932 15.9492 1.79932ZM15.9492 0.424316C13.8867 0.424316 12.3283 1.24932 11.0908 2.99098C9.85332 1.29515 8.29499 0.47015 6.23249 0.47015C2.84082 0.424316 0.0908203 3.40348 0.0908203 7.07015C0.0908203 10.416 2.56582 12.5701 4.94915 14.6326C5.22415 14.8618 5.54499 15.1368 5.81999 15.4118L6.87415 16.3285C8.89082 18.116 9.89915 19.0326 10.3575 19.3076C10.5867 19.4452 10.8617 19.5368 11.0908 19.5368C11.3658 19.5368 11.595 19.4452 11.8242 19.3076C12.2825 19.0326 13.1075 18.2993 15.3992 16.191L16.3158 15.366C16.6367 15.091 16.9117 14.816 17.2325 14.5868C19.6617 12.5701 22.0908 10.4618 22.0908 7.07015C22.0908 3.40348 19.3408 0.424316 15.9492 0.424316Z" fill="#262626"/>
</svg>
