<svg width="22" height="22" viewBox="0 0 22 22" fill="none" xmlns="http://www.w3.org/2000/svg">
<path d="M20.945 22.0034H13.8867C13.52 22.0034 13.1992 21.6826 13.1992 21.3159V15.6784C13.1992 14.4867 12.2367 13.5701 11.0909 13.5701C9.94503 13.5701 8.98253 14.5326 8.98253 15.6784V21.3159C8.98253 21.6826 8.66169 22.0034 8.29503 22.0034H1.23669C0.870028 22.0034 0.549194 21.6826 0.549194 21.3159V10.5451C0.549194 10.3617 0.640861 10.1784 0.732528 10.0409L10.5867 0.186719C10.8617 -0.0882813 11.32 -0.0882813 11.5492 0.186719L21.4034 10.0409C21.5409 10.1784 21.5867 10.3617 21.5867 10.5451V21.3159C21.6325 21.6826 21.3117 22.0034 20.945 22.0034Z" fill="#262626"/>
</svg>
