<svg width="22" height="22" viewBox="0 0 22 22" fill="none" xmlns="http://www.w3.org/2000/svg">
<path d="M16.1825 7.6575L12.8825 10.1783C12.6534 10.3617 12.3325 10.3617 12.1034 10.1783L9.62836 8.345C8.89503 7.795 7.84086 7.97834 7.33669 8.7575L4.22003 13.6617C3.89919 14.12 4.49503 14.67 4.95336 14.3492L8.29919 11.8283C8.52836 11.645 8.84919 11.645 9.07836 11.8283L11.5534 13.6617C12.2867 14.2117 13.3409 14.0283 13.845 13.2492L16.9617 8.345C17.2367 7.84084 16.6409 7.33667 16.1825 7.6575ZM10.5909 0.46167C4.63253 0.46167 0.0491943 4.81584 0.0491943 10.6825C0.0491943 13.7533 1.28669 16.4117 3.34919 18.245C3.53253 18.3825 3.62419 18.6117 3.62419 18.8408L3.71586 20.72C3.71586 21.1783 4.12836 21.545 4.54086 21.545C4.63253 21.545 4.77003 21.545 4.86169 21.4533L6.97003 20.5367C7.06169 20.4908 7.19919 20.445 7.29086 20.445C7.38253 20.445 7.42836 20.445 7.52003 20.4908C8.48253 20.7658 9.49086 20.9033 10.5909 20.9033C16.5492 20.9033 21.1325 16.5492 21.1325 10.6825C21.1325 4.81584 16.5492 0.46167 10.5909 0.46167ZM10.5909 19.5283C9.67419 19.5283 8.75753 19.3908 7.88669 19.1617C7.70336 19.1158 7.52003 19.07 7.29086 19.07C6.97003 19.07 6.69503 19.1158 6.37419 19.2533L4.99919 19.8492V18.795C4.99919 18.1992 4.72419 17.6492 4.26586 17.2367C2.43253 15.5867 1.42419 13.2492 1.42419 10.6825C1.42419 5.64084 5.36586 1.83667 10.5909 1.83667C15.8159 1.83667 19.7575 5.64084 19.7575 10.6825C19.7575 15.7242 15.8159 19.5283 10.5909 19.5283Z" fill="#262626"/>
</svg>
